<?xml version="1.0" encoding="UTF-8"?>
<svg width="160px" height="56px" viewBox="0 0 160 56" version="1.1" xmlns="http://www.w3.org/2000/svg" xmlns:xlink="http://www.w3.org/1999/xlink">
    <!-- Generator: Sketch 47.1 (45422) - http://www.bohemiancoding.com/sketch -->
    <title>logo</title>
    <desc>Created with Sketch.</desc>
    <defs>
        <polygon id="path-1" points="102 0.1403 102 32.9998921 0.7758 32.9998921 0.7758 0.1403 102 0.1403"></polygon>
    </defs>
    <g id="Page-1" stroke="none" stroke-width="1" fill="none" fill-rule="evenodd">
        <g id="01-inicial" transform="translate(-91.000000, -13.000000)">
            <g id="menuheader">
                <g id="Group-3">
                    <g id="logo" transform="translate(91.000000, 12.000000)">
                        <g id="Group-3" transform="translate(0.000000, 0.306800)" fill="#C70B12">
                            <path d="M1.3233,32.4479 C1.4633,4.6659 77.5993,1.3769 101.1823,1.1669 C89.7063,-0.3021 -12.7427,-0.3721 1.3233,32.4479" id="Fill-1"></path>
                        </g>
                        <g id="Group-6" transform="translate(58.000000, 23.306800)">
                            <mask id="mask-2" fill="white">
                                <use xlink:href="#path-1"></use>
                            </mask>
                            <g id="Clip-5"></g>
                            <path d="M100.6348,0.1403 C100.0048,6.0883 96.9258,11.1273 91.3978,15.1163 C65.3648,30.1613 30.3068,33.5203 0.7758,31.9803 C22.8188,34.4303 87.1288,34.0103 100.6348,12.7363 C102.5248,8.5383 102.3848,4.3393 100.6348,0.1403" id="Fill-4" fill="#C70B12" mask="url(#mask-2)"></path>
                        </g>
                        <path d="M64.3394,40.9422 L60.4844,40.9422 L60.4844,31.1812 L49.2564,17.9002 L53.9464,17.9002 L59.6894,24.8472 C60.7494,26.1472 61.7364,27.4462 62.6504,28.7452 C63.5244,27.5402 64.5844,26.1832 65.8294,24.6742 L71.4734,17.9002 L75.9644,17.9002 L64.3394,31.1812 L64.3394,40.9422 Z M50.7074,40.9422 L32.5054,40.9422 L32.5054,17.9002 L36.3604,17.9002 L36.3604,38.2232 L50.7074,38.2232 L50.7074,40.9422 Z M79.4814,17.9002 L83.3364,17.9002 L83.3364,31.1972 C83.3364,33.1982 83.5704,34.6732 84.0414,35.6222 C84.5114,36.5702 85.3194,37.3012 86.4654,37.8142 C87.6114,38.3282 89.0124,38.5842 90.6684,38.5842 C93.5034,38.5842 95.5234,38.0762 96.7294,37.0602 C97.9344,36.0442 98.5374,34.0892 98.5374,31.1972 L98.5374,17.9002 L102.3924,17.9002 L102.3924,31.2132 C102.3924,33.5282 102.0614,35.3682 101.3984,36.7302 C100.7364,38.0922 99.5414,39.2002 97.8124,40.0542 C96.0834,40.9082 93.8144,41.3352 91.0064,41.3352 C88.2774,41.3352 86.0454,40.9632 84.3094,40.2192 C82.5734,39.4752 81.3354,38.3992 80.5934,36.9892 C79.8514,35.5802 79.4814,33.6542 79.4814,31.2132 L79.4814,17.9002 Z M126.1784,32.7922 C125.6484,32.2532 124.7734,31.7992 123.5554,31.4332 C122.7734,31.1922 121.0454,30.8172 118.3694,30.3092 C115.6934,29.8012 113.8184,29.3212 112.7464,28.8712 C111.3544,28.2952 110.3174,27.5792 109.6354,26.7252 C108.9534,25.8712 108.6124,24.9152 108.6124,23.8572 C108.6124,22.6932 109.0294,21.6072 109.8644,20.5952 C110.6994,19.5842 111.9174,18.8172 113.5204,18.2932 C115.1234,17.7692 116.9054,17.5062 118.8664,17.5062 C121.0244,17.5062 122.9294,17.7822 124.5794,18.3322 C126.2284,18.8822 127.4964,19.6922 128.3834,20.7602 C129.2714,21.8292 129.7484,23.0392 129.8154,24.3912 L126.1194,24.6112 C125.9204,23.1552 125.2474,22.0552 124.1024,21.3102 C122.9564,20.5672 121.2634,20.1942 119.0244,20.1942 C116.6934,20.1942 114.9944,20.5322 113.9274,21.2082 C112.8614,21.8842 112.3284,22.6992 112.3284,23.6522 C112.3284,24.4802 112.7064,25.1612 113.4614,25.6962 C114.2034,26.2302 116.1394,26.7782 119.2734,27.3382 C122.4064,27.8992 124.5554,28.3892 125.7214,28.8082 C127.4174,29.4262 128.6694,30.2102 129.4764,31.1582 C130.2854,32.1062 130.6894,33.1982 130.6894,34.4352 C130.6894,35.6612 130.2454,36.8162 129.3584,37.9002 C128.4704,38.9852 127.1954,39.8292 125.5324,40.4312 C123.8704,41.0332 121.9994,41.3352 119.9194,41.3352 C117.2824,41.3352 115.0734,41.0312 113.2924,40.4232 C111.5094,39.8162 110.1124,38.9012 109.0994,37.6802 C108.0864,36.4602 107.5514,35.0792 107.4994,33.5392 L111.1354,33.2872 C111.3074,34.4402 111.7094,35.3862 112.3394,36.1252 C112.9664,36.8632 113.9444,37.4612 115.2694,37.9162 C116.5934,38.3722 118.0844,38.6002 119.7404,38.6002 C121.2114,38.6002 122.5084,38.4272 123.6344,38.0812 C124.7604,37.7352 125.5984,37.2622 126.1484,36.6592 C126.6984,36.0562 126.9724,35.3992 126.9724,34.6862 C126.9724,33.9632 126.7084,33.3322 126.1784,32.7922 L126.1784,32.7922 Z M102.0224,50.2492 C121.5464,47.5202 137.5014,42.1312 146.5284,31.8452 C154.7864,22.3982 147.1584,13.6502 129.3834,9.4522 C99.2934,3.5042 68.2924,3.0842 35.5424,13.2312 C19.9374,18.2692 9.3704,24.4272 8.6714,32.1942 C8.6714,39.2622 15.5984,45.2112 32.2534,49.8292 C55.8364,54.6572 79.1394,54.5882 102.0224,50.2492 L102.0224,50.2492 Z" id="Fill-7" fill="#C70B12"></path>
                        <polygon id="Fill-9" fill="#FEFEFE" points="36.3604 17.8997 32.5054 17.8997 32.5054 40.9417 50.7074 40.9417 50.7074 38.2227 36.3604 38.2227"></polygon>
                        <path d="M71.4732,17.8997 L65.8292,24.6737 C64.5842,26.1827 63.5242,27.5407 62.6502,28.7447 C61.7362,27.4457 60.7492,26.1467 59.6892,24.8467 L53.9472,17.8997 L49.2572,17.8997 L60.4842,31.1817 L60.4842,40.9417 L64.3392,40.9417 L64.3392,31.1817 L75.9642,17.8997 L71.4732,17.8997 Z" id="Fill-11" fill="#FEFEFE"></path>
                        <path d="M84.3096,40.2191 C86.0456,40.9631 88.2776,41.3351 91.0066,41.3351 C93.8146,41.3351 96.0826,40.9081 97.8126,40.0541 C99.5406,39.2001 100.7366,38.0921 101.3986,36.7301 C102.0616,35.3681 102.3926,33.5291 102.3926,31.2131 L102.3926,17.9001 L98.5376,17.9001 L98.5376,31.1971 C98.5376,34.0891 97.9346,36.0441 96.7296,37.0601 C95.5236,38.0761 93.5026,38.5841 90.6676,38.5841 C89.0126,38.5841 87.6116,38.3281 86.4656,37.8141 C85.3196,37.3011 84.5116,36.5701 84.0416,35.6221 C83.5706,34.6741 83.3356,33.1981 83.3356,31.1971 L83.3356,17.9001 L79.4806,17.9001 L79.4806,31.2131 C79.4806,33.6551 79.8516,35.5801 80.5936,36.9891 C81.3356,38.3991 82.5736,39.4751 84.3096,40.2191" id="Fill-13" fill="#FEFEFE"></path>
                        <path d="M123.6348,38.0814 C122.5088,38.4274 121.2108,38.6004 119.7398,38.6004 C118.0838,38.6004 116.5938,38.3724 115.2698,37.9164 C113.9448,37.4604 112.9668,36.8634 112.3388,36.1244 C111.7088,35.3864 111.3078,34.4404 111.1358,33.2874 L107.4988,33.5394 C107.5518,35.0794 108.0858,36.4604 109.0998,37.6804 C110.1128,38.9014 111.5098,39.8154 113.2918,40.4234 C115.0728,41.0314 117.2818,41.3354 119.9188,41.3354 C121.9988,41.3354 123.8698,41.0334 125.5318,40.4314 C127.1958,39.8294 128.4708,38.9854 129.3588,37.9004 C130.2448,36.8164 130.6898,35.6614 130.6898,34.4354 C130.6898,33.1984 130.2848,32.1064 129.4768,31.1584 C128.6688,30.2094 127.4168,29.4264 125.7218,28.8084 C124.5558,28.3894 122.4058,27.8994 119.2738,27.3384 C116.1398,26.7784 114.2028,26.2304 113.4608,25.6964 C112.7058,25.1614 112.3278,24.4804 112.3278,23.6524 C112.3278,22.6994 112.8618,21.8844 113.9278,21.2084 C114.9938,20.5324 116.6938,20.1944 119.0248,20.1944 C121.2638,20.1944 122.9558,20.5664 124.1028,21.3104 C125.2468,22.0554 125.9198,23.1554 126.1188,24.6114 L129.8158,24.3914 C129.7478,23.0394 129.2718,21.8294 128.3838,20.7604 C127.4958,19.6914 126.2288,18.8824 124.5788,18.3314 C122.9298,17.7824 121.0248,17.5064 118.8658,17.5064 C116.9058,17.5064 115.1228,17.7694 113.5208,18.2924 C111.9168,18.8164 110.6988,19.5844 109.8638,20.5954 C109.0298,21.6064 108.6128,22.6934 108.6128,23.8564 C108.6128,24.9154 108.9528,25.8714 109.6358,26.7254 C110.3178,27.5794 111.3548,28.2944 112.7458,28.8714 C113.8188,29.3214 115.6938,29.8014 118.3688,30.3094 C121.0448,30.8174 122.7738,31.1924 123.5558,31.4334 C124.7738,31.7994 125.6488,32.2524 126.1788,32.7924 C126.7078,33.3324 126.9728,33.9634 126.9728,34.6864 C126.9728,35.3994 126.6978,36.0564 126.1488,36.6594 C125.5988,37.2624 124.7608,37.7354 123.6348,38.0814" id="Fill-15" fill="#FEFEFE"></path>
                    </g>
                </g>
            </g>
        </g>
    </g>
</svg>