<svg xmlns="http://www.w3.org/2000/svg" viewBox="0 0 707.85 194.04"><defs><style>.cls-1{fill:#c1301a;}.cls-2{fill:#526a15;}</style></defs><title>milicia_logotipo</title><g id="Camada_1" data-name="Camada 1"><path class="cls-1" d="M195.16,134.87c0-1,0-2.09-.08-3.12a103.53,103.53,0,0,1-7.24,8.6l-51.89,56c-.71.82-1.34,1.61-1.91,2.38A64,64,0,0,0,195.16,134.87Z" transform="translate(-34.84 -37.81)"/><path class="cls-1" d="M122.3,124.2c6.11-6.45,11.27-12,12.3-14.63.68-1.79,0-3.38-2.33-4.25-4-1.51-12.55-.09-21.59,4.08L70,153.54a63.7,63.7,0,0,0,8.72,17.89Z" transform="translate(-34.84 -37.81)"/><path class="cls-1" d="M67.81,126.19l31.42-34c-5.16-.23-10.19-.56-14.93-.81A63.74,63.74,0,0,0,67.81,126.19Z" transform="translate(-34.84 -37.81)"/><path class="cls-1" d="M118.45,185.49l43-46.42c6.11-6.45,11.27-12,12.3-14.63.68-1.79,0-3.38-2.21-4.2-4.09-1.56-13.28-.08-22.57,4.73L95.35,183.14,92.77,186a63.69,63.69,0,0,0,19,9.84A37.57,37.57,0,0,1,118.45,185.49Z" transform="translate(-34.84 -37.81)"/><path class="cls-1" d="M114.46,75.58l12.21,16.35c9.52-3.11,19.81-2.85,25.94-.52,7.92,3,10.39,10.39,8,17.39,10-4.42,20.3-4.94,27.23-3.57a64,64,0,0,0-80.32-29.8C109.85,75.5,112.16,75.56,114.46,75.58Z" transform="translate(-34.84 -37.81)"/><path class="cls-1" d="M147.88,218.8V231a97.79,97.79,0,0,0,80.26-82.85H216A85.77,85.77,0,0,1,147.88,218.8Z" transform="translate(-34.84 -37.81)"/><path class="cls-1" d="M216,121.5h12.13a97.79,97.79,0,0,0-80.26-82.85V50.86A85.77,85.77,0,0,1,216,121.5Z" transform="translate(-34.84 -37.81)"/><path class="cls-1" d="M121.22,49.91V37.81A97.75,97.75,0,0,0,34.84,121.5H47A85.73,85.73,0,0,1,121.22,49.91Z" transform="translate(-34.84 -37.81)"/><path class="cls-1" d="M47,148.16H34.84a97.75,97.75,0,0,0,86.37,83.69v-12.1A85.73,85.73,0,0,1,47,148.16Z" transform="translate(-34.84 -37.81)"/></g><g id="Camada_2" data-name="Camada 2"><path class="cls-2" d="M401.47,80c-7,0-18.73,4.1-28.17,13.4C373,86,368.11,80,359.63,80c-6.56,0-16.27,3.42-24.07,9.71L318.34,78.77c-31.59,11.76-67.27,16.13-67.27,44.44-.14,14.77,11.21,25.16,27.89,25.16V130.59c-3.42,0-9.57-1.64-9.57-8.2,0-11.49,19.55-15.72,40.61-22.7l-34.73,86.42H297l29.81-74.38c7-7.11,14.49-11.49,18.73-11.49,2.46,0,3.69,1.23,3.69,3.14,0,2.87-2.87,9.85-6.29,18l-26,64.67h21.74l29.4-73.43c7-7.79,15-12.44,19.42-12.44,2.32,0,3.56,1.23,3.56,3.14,0,2.87-2.87,9.85-6.29,18l-23.66,58.66c-5.74,15.45-2.6,30.35,18.73,37.47l6.7-16.54c-7.93-4.1-8.07-9-5.2-17l28.58-70.83C413.23,105,415,99,415,94.22,415,86.43,410.36,80,401.47,80Z" transform="translate(-34.84 -37.81)"/><path class="cls-2" d="M450.08,107.62a12.32,12.32,0,0,0,12-12,12,12,0,0,0-12-11.9,11.85,11.85,0,0,0-12,11.9A12.14,12.14,0,0,0,450.08,107.62Z" transform="translate(-34.84 -37.81)"/><polygon class="cls-2" points="523.26 47.38 500.29 47.38 482.1 68.58 498.79 68.58 523.26 47.38"/><path class="cls-2" d="M643.56,107.62a12.32,12.32,0,0,0,12-12,12,12,0,0,0-12-11.9,11.85,11.85,0,0,0-12,11.9A12.14,12.14,0,0,0,643.56,107.62Z" transform="translate(-34.84 -37.81)"/><path class="cls-2" d="M735,146.32c-9.85,16.82-19.14,26.39-24.61,26.39-2.46,0-4.79-2.05,1.37-17.5l17-41.84-25.57,9.3s-3-11.08-16.27-11.08c-17.56,0-28.57,19-33.89,35.86-9.47,16.11-18.6,25.26-23.94,25.26-2.32,0-4.79-1.91,1.5-17.5l16.82-41.84H625.65l-13.8,34.08c-9.71,16.49-24.11,25.26-37.61,25.26-4.92,0-13.95-1.37-13.95-10.25,0-9.16,9.57-33.64,21.33-33.64,4.37,0,3.83,3.56-4,19.55H599.4c11.62-23.11,2.6-36.78-16.82-36.78-21.8,0-35.08,18.26-40.28,35.09-9.63,16.59-19,26-24.4,26-2.32,0-4.92-1.78,1.5-17.5l16.82-41.84H514.48l-13.82,34.13c-9.46,16.08-18.58,25.22-23.92,25.22-2.32,0-4.79-1.91,1.5-17.5L506,86.29H484.27L459.5,147.5c-9.46,16.07-18.57,25.21-23.91,25.21-2.32,0-4.79-1.91,1.5-17.5l16.82-41.84H432.17l-15.45,38.15c-10,24.75-1.23,34.59,11.21,34.59,9.37,0,18-5.63,25.69-14.09.76,9.86,7.32,14.09,15.47,14.09,9.37,0,18-5.63,25.69-14.09.78,9.82,7.33,14.09,15.46,14.09,11.13,0,21.24-8,29.93-19.15,1.92,11.92,11,19.15,27.78,19.15,16.06,0,28.53-6.7,37.92-15.66.15,11,7,15.66,15.54,15.66,10.24,0,19.61-6.73,27.8-16.52.47,9.2,5.64,16.52,15.4,16.52,12,0,21.47-11.35,21.47-11.35s1.78,11.35,16,11.35c16.68,0,29.94-15.72,40.61-34.32C741.6,149.19,737.91,146.59,735,146.32ZM688.55,158.9s-6.29,9.84-13.81,9.84c-2.74,0-4.38-1.5-4.38-5.06,0-8.75,10.12-34.32,20.92-34.32,6,0,6.15,7.66,6.15,7.66Z" transform="translate(-34.84 -37.81)"/></g></svg>